# xmcd CD database file
#
# Track frame offsets:
#	150
#	22413
#	40658
#	58714
#	81476
#	98725
#	118062
#	141216
#	156230
#	178061
#	191268
#	208460
#	231977
#
# Disc length: 3428 seconds
#
# Revision: 0
# Processed by: cddbd v1.5.1PL0 Copyright (c) Steve Scherf et al.
# Submitted via: CDex 1.51
#
DISCID=c00d620d
DTITLE=Big and Rich - Horse Of A Different Color
DYEAR=2004
DGENRE=Country
TTITLE0=Rollin' (The Ballard of Big and Rich)
TTITLE1=Wild West Show
TTITLE2=Big Time
TTITLE3=Kick My Ass
TTITLE4=Six Foot Town
TTITLE5=Holy Water
TTITLE6=Saved
TTITLE7=Real World
TTITLE8=Save A Horse (Ride A Cowboy)
TTITLE9=Drinkin' 'Bout You
TTITLE10=Love Train
TTITLE11=Deadwood Mountain
TTITLE12=Live This Life
EXTD=YEAR: 2004
EXTT0=
EXTT1=
EXTT2=
EXTT3=
EXTT4=
EXTT5=
EXTT6=
EXTT7=
EXTT8=
EXTT9=
EXTT10=
EXTT11=
EXTT12=
PLAYORDER=
